<?xml version="1.0" encoding="iso-8859-1"?>
<!-- Generator: Adobe Illustrator 19.0.0, SVG Export Plug-In . SVG Version: 6.00 Build 0)  -->
<svg version="1.1" id="Layer_1" xmlns="http://www.w3.org/2000/svg" xmlns:xlink="http://www.w3.org/1999/xlink" x="0px" y="0px"
	 viewBox="0 0 512 512" style="enable-background:new 0 0 512 512;" xml:space="preserve">
<g>
	<g>
		<path d="M424.627,143.859L344.083,4.352C342.528,1.66,339.655,0,336.545,0H175.455c-3.11,0-5.983,1.66-7.538,4.352L87.373,143.859
			c-1.096,1.899-1.436,4.14-0.951,6.278l80.544,355.084c0.899,3.965,4.423,6.779,8.489,6.779h161.088
			c4.066,0,7.589-2.814,8.489-6.779l80.544-355.084C426.063,147.999,425.723,145.757,424.627,143.859z M329.593,494.591H182.406
			l-78.252-344.98l76.327-132.202h151.038l76.328,132.202L329.593,494.591z"/>
	</g>
</g>
<g>
	<g>
		<path d="M375.332,151.323L317.28,50.776c-1.555-2.693-4.428-4.352-7.538-4.352H202.259c-3.11,0-5.983,1.66-7.538,4.352
			l-58.051,100.547c-1.096,1.899-1.436,4.14-0.951,6.278l68.321,301.196c0.898,3.965,4.423,6.779,8.489,6.779h86.944
			c4.066,0,7.59-2.814,8.489-6.779l68.321-301.196C376.768,155.463,376.428,153.222,375.332,151.323z M292.52,448.167h-73.041
			l-66.029-291.092l53.834-93.242h97.432l53.833,93.242L292.52,448.167z"/>
	</g>
</g>
<g>
	<g>
		<path d="M320.604,142.089H279.27V98.526c0-4.807-3.897-8.704-8.704-8.704h-29.131c-4.807,0-8.704,3.897-8.704,8.704v43.563
			h-41.335c-4.807,0-8.704,3.897-8.704,8.704v29.131c0,4.807,3.897,8.704,8.704,8.704h41.335v118.526
			c0,4.807,3.897,8.704,8.704,8.704h29.131c4.807,0,8.704-3.897,8.704-8.704V188.629h41.335c4.807,0,8.704-3.897,8.704-8.704
			v-29.131C329.309,145.987,325.411,142.089,320.604,142.089z M311.901,171.22h-41.335c-4.807,0-8.704,3.897-8.704,8.704v118.526
			H250.14V179.925c0-4.807-3.897-8.704-8.704-8.704h-41.335v-11.722h41.335c4.807,0,8.704-3.897,8.704-8.704v-43.563h11.722v43.563
			c0,4.807,3.897,8.704,8.704,8.704h41.335V171.22z"/>
	</g>
</g>
<g>
</g>
<g>
</g>
<g>
</g>
<g>
</g>
<g>
</g>
<g>
</g>
<g>
</g>
<g>
</g>
<g>
</g>
<g>
</g>
<g>
</g>
<g>
</g>
<g>
</g>
<g>
</g>
<g>
</g>
</svg>
